<svg width="50" height="50" viewBox="0 0 50 50" fill="none" xmlns="http://www.w3.org/2000/svg">
<path d="M12.4443 41.3958H37.9482C41.354 41.3958 43.1275 39.638 43.1275 36.2793V12.5017C43.1275 9.14307 41.354 7.38525 37.9482 7.38525H19.1616C15.7559 7.38525 13.998 9.14307 13.998 12.5017V38.2725C13.998 39.8734 13.6057 40.768 12.4443 41.3958ZM20.684 17.1945C20.0719 17.1945 19.6168 16.7236 19.6168 16.1272C19.6168 15.5465 20.0562 15.0914 20.684 15.0914H36.4572C37.0536 15.0914 37.5088 15.5465 37.5088 16.1272C37.5088 16.7236 37.0536 17.1945 36.4572 17.1945H20.684ZM6.85693 22.9701V36.8286C6.85693 38.1313 7.83001 38.8375 8.89725 38.8375C9.98019 38.8375 10.9376 38.1313 10.9376 36.8286V19.4859H10.3098C8.33224 19.4859 6.85693 20.7258 6.85693 22.9701ZM20.684 22.6092C20.0562 22.6092 19.6168 22.154 19.6168 21.5733C19.6168 20.9769 20.0719 20.5061 20.684 20.5061H36.4572C37.0536 20.5061 37.5088 20.9769 37.5088 21.5733C37.5088 22.154 37.0536 22.6092 36.4572 22.6092H20.684ZM21.4844 33.5641C20.3073 33.5641 19.5854 32.8578 19.5854 31.6807V27.8198C19.5854 26.6584 20.3073 25.9365 21.4844 25.9365H25.2198C26.4126 25.9365 27.1189 26.6584 27.1189 27.8198V31.6807C27.1189 32.8578 26.4126 33.5641 25.2198 33.5641H21.4844ZM30.2107 28.0396C29.5986 28.0396 29.1435 27.5844 29.1435 27.0037C29.1435 26.4073 29.5829 25.9365 30.2107 25.9365H36.4572C37.0536 25.9365 37.5088 26.4073 37.5088 27.0037C37.5088 27.5844 37.0536 28.0396 36.4572 28.0396H30.2107ZM30.2107 33.5013C29.5829 33.5013 29.1435 33.0462 29.1435 32.4655C29.1435 31.8691 29.5986 31.3982 30.2107 31.3982H36.4572C37.0536 31.3982 37.5088 31.8691 37.5088 32.4655C37.5088 33.0462 37.0536 33.5013 36.4572 33.5013H30.2107Z" fill="#1C1C1E"/>
</svg>
