<svg width="30" height="22" viewBox="0 0 30 22" fill="none" xmlns="http://www.w3.org/2000/svg">
<path d="M2.29705 17.4165H27.6078C28.9371 17.4165 29.8677 18.2449 29.8677 19.4617C29.8677 20.6784 28.9371 21.481 27.6078 21.481H2.29705C0.994295 21.481 0.0637531 20.6784 0.0637531 19.4617C0.0637531 18.2449 0.994295 17.4165 2.29705 17.4165Z" fill="white"/>
<path d="M2.29705 8.87345H27.6078C28.9371 8.87345 29.8677 9.70187 29.8677 10.9186C29.8677 12.1354 28.9371 12.9379 27.6078 12.9379H2.29705C0.994295 12.9379 0.0637531 12.1354 0.0637531 10.9186C0.0637531 9.70187 0.994295 8.87345 2.29705 8.87345Z" fill="white"/>
<path d="M2.29705 0.304487H27.6078C28.9371 0.304487 29.8677 1.13291 29.8677 2.34965C29.8677 3.56639 28.9371 4.36892 27.6078 4.36892H2.29705C0.994295 4.36892 0.0637531 3.56639 0.0637531 2.34965C0.0637531 1.13291 0.994295 0.304487 2.29705 0.304487Z" fill="white"/>
</svg>
