<svg width="63" height="52" viewBox="0 0 63 52" fill="none" xmlns="http://www.w3.org/2000/svg">
<path d="M63 26.0166C63 24.9849 62.5674 23.9865 61.8019 23.2543L39.9366 1.38902C39.0713 0.557004 38.1727 0.190918 37.2409 0.190918C35.1109 0.190918 33.58 1.68854 33.58 3.71865C33.58 4.78363 34.0127 5.6822 34.6783 6.34781L42.1664 13.9358L51.8177 22.7551L44.0967 22.2892L3.7607 22.2892C1.5309 22.2892 0 23.8201 0 26.0166C0 28.1798 1.5309 29.7107 3.7607 29.7107L44.0967 29.7107L51.8177 29.2448L42.1664 38.0641L34.6783 45.6521C34.0127 46.3177 33.58 47.2163 33.58 48.2812C33.58 50.3114 35.1109 51.809 37.2409 51.809C38.1727 51.809 39.0713 51.4429 39.87 50.6774L61.8019 28.7456C62.5674 28.0134 63 27.015 63 26.0166Z" fill="black"/>
</svg>
