<svg width="36" height="37" viewBox="0 0 36 37" fill="none" xmlns="http://www.w3.org/2000/svg">
<path d="M6.24647 36.1281H29.0925C33.1675 36.1281 35.2804 34.0152 35.2804 29.9968V7.03756C35.2804 3.00035 33.1675 0.906281 29.0925 0.906281H6.24647C2.17153 0.906281 0.0585938 3.00035 0.0585938 7.03756V29.9968C0.0585938 34.034 2.17153 36.1281 6.24647 36.1281ZM7.71797 20.0925C5.94462 20.0925 5.60504 18.1116 7.09541 17.4324L24.8478 9.05616C26.4702 8.30154 27.8852 9.71645 27.1305 11.3389L18.8297 29.1101C18.1506 30.5817 16.1697 30.2798 16.1697 28.4687V20.7527C16.1697 20.3566 15.9056 20.0925 15.5283 20.0925H7.71797Z" fill="#1C1C1E"/>
</svg>
