<svg width="19" height="23" viewBox="0 0 19 23" fill="none" xmlns="http://www.w3.org/2000/svg">
<path d="M2.45092 23.0002H5.71724C7.03766 23.0002 7.71873 22.3297 7.71873 21.0298V2.20182C7.71873 0.874553 7.03766 0.245128 5.71724 0.231445H2.45092C1.13049 0.231445 0.449427 0.901919 0.449427 2.20182V21.0298C0.435528 22.3297 1.11659 23.0002 2.45092 23.0002ZM13.0143 23.0002H16.2668C17.5872 23.0002 18.2682 22.3297 18.2682 21.0298V2.20182C18.2682 0.874553 17.5872 0.231445 16.2668 0.231445H13.0143C11.68 0.231445 11.0128 0.901919 11.0128 2.20182V21.0298C11.0128 22.3297 11.68 23.0002 13.0143 23.0002Z" fill="white"/>
</svg>
