<svg width="22" height="22" viewBox="0 0 22 22" fill="none" xmlns="http://www.w3.org/2000/svg">
<path d="M15.0436 9.72797H18.7042C20.5265 9.72797 21.623 8.61441 21.623 6.68205V3.11209C21.623 1.1961 20.5265 0.0661621 18.7042 0.0661621H15.0436C13.2052 0.0661621 12.1248 1.1961 12.1248 3.11209V6.68205C12.1248 8.61441 13.2052 9.72797 15.0436 9.72797Z" fill="white"/>
<path d="M3.40052 9.72797H7.06115C8.89953 9.72797 9.97998 8.61441 9.97998 6.68205V3.11209C9.97998 1.1961 8.89953 0.0661621 7.06115 0.0661621H3.40052C1.56215 0.0661621 0.481695 1.1961 0.481695 3.11209V6.68205C0.481695 8.61441 1.56215 9.72797 3.40052 9.72797Z" fill="white"/>
<path d="M15.0436 21.2075H18.7042C20.5265 21.2075 21.623 20.1103 21.623 18.1943V14.5916C21.623 12.6756 20.5265 11.5785 18.7042 11.5785H15.0436C13.2052 11.5785 12.1248 12.6756 12.1248 14.5916V18.1943C12.1248 20.1103 13.2052 21.2075 15.0436 21.2075Z" fill="white"/>
<path d="M3.40052 21.2075H7.06115C8.89953 21.2075 9.97998 20.1103 9.97998 18.1943V14.5916C9.97998 12.6756 8.89953 11.5785 7.06115 11.5785H3.40052C1.56215 11.5785 0.481695 12.6756 0.481695 14.5916V18.1943C0.481695 20.1103 1.56215 21.2075 3.40052 21.2075Z" fill="white"/>
</svg>
