<svg width="56" height="56" viewBox="0 0 56 56" fill="none" xmlns="http://www.w3.org/2000/svg">
<rect width="56" height="56" rx="28" fill="white"/>
<path fill-rule="evenodd" clip-rule="evenodd" d="M28.0924 5C22.6083 5.00293 17.3041 7.00573 13.1282 10.6503C8.95229 14.2948 6.17695 19.3434 5.29844 24.8934C4.41992 30.4433 5.49553 36.1327 8.33293 40.9442C11.1703 45.7557 15.5845 49.3756 20.7862 51.1565C21.9337 51.3761 22.366 50.6427 22.366 50.0192C22.366 49.3956 22.343 47.5876 22.3354 45.611C15.909 47.0425 14.5511 42.8147 14.5511 42.8147C13.5029 40.0694 11.9881 39.3478 11.9881 39.3478C9.89192 37.881 12.145 37.9084 12.145 37.9084C14.4669 38.0771 15.6872 40.3518 15.6872 40.3518C17.7451 43.9716 21.0922 42.9245 22.4081 42.3127C22.6146 40.7792 23.2152 39.736 23.877 39.1438C18.7435 38.5477 13.3499 36.5162 13.3499 27.4409C13.3181 25.0873 14.17 22.8113 15.7292 21.0836C15.4921 20.4875 14.7002 18.0794 15.9549 14.8086C15.9549 14.8086 17.8943 14.1733 22.3086 17.2362C26.0949 16.1746 30.0898 16.1746 33.8761 17.2362C38.2866 14.1733 40.2221 14.8086 40.2221 14.8086C41.4806 18.0716 40.6888 20.4796 40.4517 21.0836C42.0159 22.8115 42.8695 25.0916 42.8348 27.4488C42.8348 36.5436 37.4297 38.5477 32.2886 39.1321C33.1149 39.8694 33.8532 41.3087 33.8532 43.5206C33.8532 46.6895 33.8264 49.2387 33.8264 50.0192C33.8264 50.6506 34.2433 51.3879 35.4138 51.1565C40.6161 49.3754 45.0307 45.7549 47.8681 40.9426C50.7054 36.1302 51.7805 30.44 50.901 24.8895C50.0214 19.3391 47.2447 14.2904 43.0674 10.6465C38.8901 7.00255 33.5847 5.00107 28.1 5H28.0924Z" fill="#191717"/>
<path d="M13.4231 37.7671C13.3752 37.8804 13.1983 37.9145 13.0545 37.8351C12.9108 37.7557 12.8039 37.6083 12.8555 37.4912C12.9071 37.374 13.0803 37.3438 13.2241 37.4232C13.3678 37.5025 13.4784 37.6537 13.4231 37.7671Z" fill="#191717"/>
<path d="M14.3247 38.8012C14.2484 38.8406 14.161 38.8516 14.0776 38.8323C13.9943 38.813 13.92 38.7646 13.8676 38.6954C13.7239 38.5366 13.6944 38.3174 13.8049 38.2192C13.9155 38.1209 14.1146 38.1663 14.2584 38.325C14.4021 38.4837 14.4353 38.7029 14.3247 38.8012Z" fill="#191717"/>
<path d="M15.2018 40.1132C15.0654 40.2114 14.8331 40.1132 14.7041 39.9167C14.6684 39.8814 14.6401 39.8391 14.6207 39.7924C14.6013 39.7456 14.5913 39.6953 14.5913 39.6445C14.5913 39.5937 14.6013 39.5435 14.6207 39.4967C14.6401 39.45 14.6684 39.4077 14.7041 39.3724C14.8405 39.278 15.0727 39.3724 15.2018 39.5652C15.3308 39.7579 15.3345 40.0149 15.2018 40.1132Z" fill="#191717"/>
<path d="M16.3944 41.3847C16.2728 41.5246 16.0258 41.4868 15.8231 41.2978C15.6204 41.1088 15.5724 40.8518 15.6941 40.7158C15.8157 40.5797 16.0627 40.6175 16.2728 40.8027C16.4829 40.9879 16.5235 41.2487 16.3944 41.3847Z" fill="#191717"/>
<path d="M18.0643 42.1245C18.009 42.3021 17.7584 42.3815 17.5077 42.3059C17.2571 42.2303 17.0912 42.0187 17.1391 41.8373C17.187 41.6559 17.4414 41.5727 17.6957 41.6559C17.9501 41.739 18.1122 41.9393 18.0643 42.1245Z" fill="#191717"/>
<path d="M19.8834 42.2496C19.8834 42.4348 19.677 42.5936 19.4116 42.5973C19.1462 42.6011 18.9287 42.4499 18.9287 42.2648C18.9287 42.0796 19.1351 41.9208 19.4005 41.9171C19.6659 41.9133 19.8834 42.0607 19.8834 42.2496Z" fill="#191717"/>
<path d="M21.578 41.9606C21.6112 42.1458 21.4269 42.3385 21.1615 42.3839C20.8961 42.4292 20.6639 42.3196 20.6307 42.1382C20.5975 41.9568 20.7892 41.7603 21.0472 41.7112C21.3053 41.6621 21.5449 41.7754 21.578 41.9606Z" fill="#191717"/>
</svg>
